<mxfile host="app.diagrams.net" modified="2024-03-23T13:17:39.774Z" agent="Mozilla/5.0 (Macintosh; Intel Mac OS X 10_15_7) AppleWebKit/537.36 (KHTML, like Gecko) Chrome/121.0.0.0 Safari/537.36" etag="IeGWNDlDlkfKWB-GBE42" version="24.0.9" type="github">
  <diagram id="C5RBs43oDa-KdzZeNtuy" name="Page-1">
    <mxGraphModel dx="448" dy="416" grid="1" gridSize="10" guides="1" tooltips="1" connect="1" arrows="1" fold="1" page="1" pageScale="1" pageWidth="827" pageHeight="1169" math="0" shadow="0">
      <root>
        <mxCell id="WIyWlLk6GJQsqaUBKTNV-0" />
        <mxCell id="WIyWlLk6GJQsqaUBKTNV-1" parent="WIyWlLk6GJQsqaUBKTNV-0" />
        <mxCell id="YaHdI2eqBZiv8nN1w08C-4" value="" style="edgeStyle=none;curved=1;rounded=0;orthogonalLoop=1;jettySize=auto;html=1;fontSize=12;startSize=8;endSize=8;" edge="1" parent="WIyWlLk6GJQsqaUBKTNV-1" source="YaHdI2eqBZiv8nN1w08C-0" target="YaHdI2eqBZiv8nN1w08C-3">
          <mxGeometry relative="1" as="geometry" />
        </mxCell>
        <mxCell id="YaHdI2eqBZiv8nN1w08C-0" value="&quot;2024-04-07,Everton,Arsenal,1,0,H,K Friend&quot;" style="rounded=0;whiteSpace=wrap;html=1;" vertex="1" parent="WIyWlLk6GJQsqaUBKTNV-1">
          <mxGeometry x="210" y="115" width="300" height="60" as="geometry" />
        </mxCell>
        <mxCell id="YaHdI2eqBZiv8nN1w08C-2" value="&quot;2024-04-07,Everton,Arsenal,1,0,H,K Friend&quot;" style="rounded=0;whiteSpace=wrap;html=1;" vertex="1" parent="WIyWlLk6GJQsqaUBKTNV-1">
          <mxGeometry x="210" y="260" width="300" height="60" as="geometry" />
        </mxCell>
        <mxCell id="YaHdI2eqBZiv8nN1w08C-3" value="&quot;2024-04-07,Everton,Arsenal,1,0,H,K Friend&quot;" style="rounded=0;whiteSpace=wrap;html=1;" vertex="1" parent="WIyWlLk6GJQsqaUBKTNV-1">
          <mxGeometry x="210" y="430" width="300" height="60" as="geometry" />
        </mxCell>
        <mxCell id="YaHdI2eqBZiv8nN1w08C-5" value="string" style="text;strokeColor=none;fillColor=none;html=1;align=center;verticalAlign=middle;whiteSpace=wrap;rounded=0;fontSize=16;" vertex="1" parent="WIyWlLk6GJQsqaUBKTNV-1">
          <mxGeometry x="530" y="130" width="60" height="30" as="geometry" />
        </mxCell>
        <mxCell id="YaHdI2eqBZiv8nN1w08C-6" value="string[]" style="text;strokeColor=none;fillColor=none;html=1;align=center;verticalAlign=middle;whiteSpace=wrap;rounded=0;fontSize=16;" vertex="1" parent="WIyWlLk6GJQsqaUBKTNV-1">
          <mxGeometry x="530" y="275" width="60" height="30" as="geometry" />
        </mxCell>
        <mxCell id="YaHdI2eqBZiv8nN1w08C-7" value="string[][]" style="text;strokeColor=none;fillColor=none;html=1;align=center;verticalAlign=middle;whiteSpace=wrap;rounded=0;fontSize=16;" vertex="1" parent="WIyWlLk6GJQsqaUBKTNV-1">
          <mxGeometry x="530" y="445" width="60" height="30" as="geometry" />
        </mxCell>
        <mxCell id="YaHdI2eqBZiv8nN1w08C-9" value=".split(&#39;\n&#39;)" style="rounded=0;whiteSpace=wrap;html=1;fillColor=#dae8fc;strokeColor=#6c8ebf;" vertex="1" parent="WIyWlLk6GJQsqaUBKTNV-1">
          <mxGeometry x="370" y="205" width="120" height="35" as="geometry" />
        </mxCell>
        <mxCell id="YaHdI2eqBZiv8nN1w08C-10" value="map + split" style="rounded=0;whiteSpace=wrap;html=1;fillColor=#dae8fc;strokeColor=#6c8ebf;" vertex="1" parent="WIyWlLk6GJQsqaUBKTNV-1">
          <mxGeometry x="370" y="360" width="120" height="35" as="geometry" />
        </mxCell>
      </root>
    </mxGraphModel>
  </diagram>
</mxfile>
